# Blender v2.80 (sub 75) OBJ File: ''
# www.blender.org
mtllib create_cube.mtl
o Box002_Mesh
v -0.388620 -0.508000 -0.388620
v 0.388620 -0.508000 -0.388620
v 0.388620 -0.508000 0.388620
v -0.388620 -0.508000 0.388620
v 0.388620 0.508000 -0.388620
v -0.388620 0.508000 -0.388620
v -0.388620 0.508000 0.388620
v 0.388620 0.508000 0.388620
v 0.388620 0.388620 0.508000
v -0.388620 0.388620 0.508000
v -0.388620 -0.388620 0.508000
v 0.388620 -0.388620 0.508000
v 0.508000 -0.388620 -0.388620
v 0.508000 0.388620 -0.388620
v 0.508000 0.388620 0.388620
v 0.508000 -0.388620 0.388620
v -0.388620 0.388620 -0.508000
v 0.388620 0.388620 -0.508000
v 0.388620 -0.388620 -0.508000
v -0.388620 -0.388620 -0.508000
v -0.508000 -0.388620 0.388620
v -0.508000 0.388620 0.388620
v -0.508000 0.388620 -0.388620
v -0.508000 -0.388620 -0.388620
v -0.388620 -0.508000 -0.508000
v 0.388620 -0.508000 -0.508000
v 0.388620 -0.508000 0.508000
v -0.388620 -0.508000 0.508000
v 0.388620 0.508000 -0.508000
v -0.388620 0.508000 -0.508000
v -0.388620 0.508000 0.508000
v 0.388620 0.508000 0.508000
v 0.508000 -0.388620 -0.508000
v 0.508000 0.388620 -0.508000
v 0.508000 0.388620 0.508000
v 0.508000 -0.388620 0.508000
v -0.508000 -0.388620 0.508000
v -0.508000 0.388620 0.508000
v -0.508000 0.388620 -0.508000
v -0.508000 -0.388620 -0.508000
v 0.508000 0.508000 -0.388620
v 0.508000 0.508000 0.388620
v 0.508000 -0.508000 0.388620
v 0.508000 -0.508000 -0.388620
v -0.508000 0.508000 0.388620
v -0.508000 0.508000 -0.388620
v -0.508000 -0.508000 -0.388620
v -0.508000 -0.508000 0.388620
v 0.525961 0.388620 -0.525961
v 0.522665 0.522665 -0.522665
v 0.525961 0.525961 -0.388620
v 0.533400 0.388620 -0.388620
v 0.533400 -0.388620 -0.388620
v 0.525961 -0.525961 -0.388620
v 0.522665 -0.522665 -0.522665
v 0.525961 -0.388620 -0.525961
v 0.525961 -0.388620 0.525961
v 0.522665 -0.522665 0.522665
v 0.525961 -0.525961 0.388620
v 0.533400 -0.388620 0.388620
v 0.533400 0.388620 0.388620
v 0.525961 0.525961 0.388620
v 0.522665 0.522665 0.522665
v 0.525961 0.388620 0.525961
v -0.525961 0.388620 0.525961
v -0.522665 0.522665 0.522665
v -0.525961 0.525961 0.388620
v -0.533400 0.388620 0.388620
v -0.533400 -0.388620 0.388620
v -0.525961 -0.525961 0.388620
v -0.522665 -0.522665 0.522665
v -0.525961 -0.388620 0.525961
v -0.525961 -0.388620 -0.525961
v -0.522665 -0.522665 -0.522665
v -0.525961 -0.525961 -0.388620
v -0.533400 -0.388620 -0.388620
v -0.533400 0.388620 -0.388620
v -0.525961 0.525961 -0.388620
v -0.522665 0.522665 -0.522665
v -0.525961 0.388620 -0.525961
v 0.388620 -0.525961 -0.525961
v 0.388620 -0.533400 -0.388620
v -0.388620 -0.533400 -0.388620
v -0.388620 -0.525961 -0.525961
v -0.388620 -0.525961 0.525961
v -0.388620 -0.533400 0.388620
v 0.388620 -0.533400 0.388620
v 0.388620 -0.525961 0.525961
v -0.388620 0.525961 -0.525961
v -0.388620 0.533400 -0.388620
v 0.388620 0.533400 -0.388620
v 0.388620 0.525961 -0.525961
v 0.388620 0.525961 0.525961
v 0.388620 0.533400 0.388620
v -0.388620 0.533400 0.388620
v -0.388620 0.525961 0.525961
v -0.388620 0.388620 0.533400
v 0.388620 0.388620 0.533400
v 0.388620 -0.388620 0.533400
v -0.388620 -0.388620 0.533400
v 0.388620 0.388620 -0.533400
v -0.388620 0.388620 -0.533400
v -0.388620 -0.388620 -0.533400
v 0.388620 -0.388620 -0.533400
vt 0.725162 0.438652
vt 0.719291 0.432781
vt 0.764182 0.430350
vt 0.764182 0.438652
vt 0.725162 0.477672
vt 0.716860 0.477672
vt 0.754132 0.342260
vt 0.760002 0.336390
vt 0.762434 0.381280
vt 0.754132 0.381280
vt 0.715112 0.342260
vt 0.715112 0.333958
vt 0.675218 0.372978
vt 0.669348 0.378848
vt 0.666916 0.333958
vt 0.675218 0.333958
vt 0.714238 0.372978
vt 0.714238 0.381280
vt 0.421174 0.802328
vt 0.427044 0.808198
vt 0.382154 0.810630
vt 0.382154 0.802328
vt 0.421174 0.763308
vt 0.429476 0.763308
vt 0.723414 0.390456
vt 0.717544 0.384586
vt 0.762434 0.382154
vt 0.762434 0.390456
vt 0.723414 0.429476
vt 0.715112 0.429476
vt 0.469370 0.705936
vt 0.475240 0.711806
vt 0.430350 0.714238
vt 0.430350 0.705936
vt 0.469370 0.666916
vt 0.477672 0.666916
vt 0.755880 0.519314
vt 0.761750 0.525184
vt 0.716860 0.527616
vt 0.716860 0.519314
vt 0.755880 0.480294
vt 0.764182 0.480294
vt 0.705936 0.390456
vt 0.711806 0.384586
vt 0.714238 0.429476
vt 0.705936 0.429476
vt 0.666916 0.390456
vt 0.666916 0.382154
vt 0.470244 0.802328
vt 0.476114 0.808198
vt 0.431224 0.810630
vt 0.431224 0.802328
vt 0.470244 0.763308
vt 0.478546 0.763308
vt 0.390456 0.754132
vt 0.384586 0.760002
vt 0.382154 0.715112
vt 0.390456 0.715112
vt 0.429476 0.754132
vt 0.429476 0.762434
vt 0.439526 0.820680
vt 0.433655 0.814809
vt 0.478546 0.812378
vt 0.478546 0.820680
vt 0.439526 0.859700
vt 0.431224 0.859700
vt 0.802328 0.372978
vt 0.808198 0.378848
vt 0.763308 0.381280
vt 0.763308 0.372978
vt 0.802328 0.333958
vt 0.810630 0.333958
vt 0.675218 0.538540
vt 0.669348 0.532669
vt 0.714238 0.530238
vt 0.714238 0.538540
vt 0.675218 0.577559
vt 0.666916 0.577559
vt 0.390456 0.705936
vt 0.384586 0.711806
vt 0.382154 0.666916
vt 0.390456 0.666916
vt 0.429476 0.705936
vt 0.429476 0.714238
vt 0.342260 0.705936
vt 0.336390 0.711806
vt 0.333958 0.666916
vt 0.342260 0.666916
vt 0.381280 0.705936
vt 0.381280 0.714238
vt 0.805824 0.469370
vt 0.811694 0.475240
vt 0.766804 0.477672
vt 0.766804 0.469370
vt 0.805824 0.430350
vt 0.814126 0.430350
vt 0.705936 0.519314
vt 0.711806 0.525184
vt 0.666916 0.527616
vt 0.666916 0.519314
vt 0.705936 0.480294
vt 0.714238 0.480294
vt 0.342260 0.819806
vt 0.336390 0.813935
vt 0.381280 0.811504
vt 0.381280 0.819806
vt 0.342260 0.858826
vt 0.333958 0.858826
vt 0.705936 0.469370
vt 0.711806 0.475240
vt 0.666916 0.477672
vt 0.666916 0.469370
vt 0.705936 0.430350
vt 0.714238 0.430350
vt 0.342260 0.802328
vt 0.336390 0.808198
vt 0.333958 0.763308
vt 0.342260 0.763308
vt 0.381280 0.802328
vt 0.381280 0.810630
vt 0.421174 0.851398
vt 0.427044 0.857268
vt 0.382154 0.859700
vt 0.382154 0.851398
vt 0.421174 0.812378
vt 0.429476 0.812378
vt 0.342260 0.754132
vt 0.336390 0.760002
vt 0.333958 0.715112
vt 0.342260 0.715112
vt 0.381280 0.754132
vt 0.381280 0.762434
vt 0.675218 0.588484
vt 0.669348 0.582613
vt 0.714238 0.580181
vt 0.714238 0.588484
vt 0.675218 0.627503
vt 0.666916 0.627503
vt 0.438652 0.723414
vt 0.432781 0.717544
vt 0.477672 0.715112
vt 0.477672 0.723414
vt 0.438652 0.762434
vt 0.430350 0.762434
vt 0.627022 0.372978
vt 0.627022 0.627022
vt 0.372978 0.627022
vt 0.372978 0.372978
vt 0.040020 0.959980
vt 0.040020 0.705936
vt 0.294064 0.705936
vt 0.294064 0.959980
vt 0.372978 0.294064
vt 0.372978 0.040020
vt 0.627022 0.040020
vt 0.627022 0.294064
vt 0.959980 0.294064
vt 0.705936 0.294064
vt 0.705936 0.040020
vt 0.959980 0.040020
vt 0.040020 0.627022
vt 0.040020 0.372978
vt 0.294064 0.372978
vt 0.294064 0.627022
vt 0.294064 0.294064
vt 0.040020 0.294064
vt 0.040020 0.040020
vt 0.294064 0.040020
vt 0.627022 0.333958
vt 0.372978 0.333958
vt 0.372978 0.666042
vt 0.627022 0.666042
vt 0.040020 0.999000
vt 0.294064 0.999000
vt 0.294064 0.666916
vt 0.040020 0.666916
vt 0.999000 0.294064
vt 0.999000 0.040020
vt 0.666916 0.040020
vt 0.666916 0.294064
vt 0.333084 0.294064
vt 0.333084 0.040020
vt 0.001000 0.040020
vt 0.001000 0.294064
vt 0.372978 0.333084
vt 0.627022 0.333084
vt 0.627022 0.001000
vt 0.372978 0.001000
vt 0.959980 0.333084
vt 0.705936 0.333084
vt 0.705936 0.001000
vt 0.959980 0.001000
vt 0.040020 0.666042
vt 0.294064 0.666042
vt 0.294064 0.333958
vt 0.040020 0.333958
vt 0.294064 0.333084
vt 0.040020 0.333084
vt 0.040020 0.001000
vt 0.294064 0.001000
vt 0.425967 0.905261
vt 0.382154 0.906338
vt 0.382154 0.861448
vt 0.427044 0.861448
vt 0.713554 0.630125
vt 0.758445 0.630125
vt 0.757367 0.673938
vt 0.713554 0.675016
vt 0.524981 0.813455
vt 0.526058 0.857268
vt 0.481168 0.857268
vt 0.481168 0.812378
vt 0.526058 0.808198
vt 0.526058 0.763308
vt 0.569871 0.764385
vt 0.570948 0.808198
vt 0.524107 0.807121
vt 0.480294 0.808198
vt 0.480294 0.763308
vt 0.525184 0.763308
vt 0.481168 0.903906
vt 0.481168 0.859016
vt 0.524981 0.860093
vt 0.526058 0.903906
vt 0.522359 0.716189
vt 0.523436 0.760002
vt 0.478546 0.760002
vt 0.478546 0.715112
vt 0.333958 0.904590
vt 0.333958 0.859700
vt 0.377771 0.860777
vt 0.378848 0.904590
vt 0.666042 0.372978
vt 0.666042 0.627022
vt 0.333958 0.627022
vt 0.333958 0.372978
vt 0.001000 0.959980
vt 0.001000 0.705936
vt 0.333084 0.705936
vt 0.333084 0.959980
vt 0.333958 0.294064
vt 0.333958 0.040020
vt 0.666042 0.040020
vt 0.666042 0.294064
vt 0.001000 0.627022
vt 0.001000 0.372978
vt 0.333084 0.372978
vt 0.333084 0.627022
vt 0.710729 0.673938
vt 0.666916 0.675016
vt 0.666916 0.630125
vt 0.711806 0.630125
vt 0.811504 0.333958
vt 0.856394 0.333958
vt 0.855317 0.377771
vt 0.811504 0.378848
vt 0.813645 0.481371
vt 0.857458 0.480294
vt 0.857458 0.525184
vt 0.812568 0.525184
vt 0.906528 0.475240
vt 0.861638 0.475240
vt 0.862715 0.431427
vt 0.906528 0.430350
vt 0.717937 0.581259
vt 0.761750 0.580181
vt 0.761750 0.625072
vt 0.716860 0.625072
vt 0.808198 0.427044
vt 0.763308 0.427044
vt 0.764385 0.383231
vt 0.808198 0.382154
vt 0.806437 0.574051
vt 0.762624 0.575128
vt 0.762624 0.530238
vt 0.807514 0.530238
vt 0.478546 0.666916
vt 0.523436 0.666916
vt 0.522359 0.710729
vt 0.478546 0.711806
vt 0.767881 0.524107
vt 0.766804 0.480294
vt 0.811694 0.480294
vt 0.811694 0.525184
vt 0.716860 0.530237
vt 0.761750 0.530237
vt 0.760673 0.574051
vt 0.716860 0.575128
vt 0.710729 0.720577
vt 0.666916 0.721654
vt 0.666916 0.676764
vt 0.711806 0.676764
vt 0.382154 0.952102
vt 0.382154 0.907212
vt 0.425967 0.908289
vt 0.427044 0.952102
vt 0.816951 0.474163
vt 0.815874 0.430350
vt 0.860764 0.430350
vt 0.860764 0.475240
vt 0.431224 0.862322
vt 0.476114 0.862322
vt 0.475037 0.906135
vt 0.431224 0.907212
vt 0.475037 0.951899
vt 0.431224 0.952976
vt 0.431224 0.908086
vt 0.476114 0.908086
vt 0.527806 0.857268
vt 0.527806 0.812378
vt 0.571619 0.813455
vt 0.572696 0.857268
vn 0.0000 0.0000 1.0000
vn 0.0000 -1.0000 -0.0000
vn -1.0000 0.0000 0.0000
vn 0.0000 1.0000 0.0000
vn 0.0000 0.0000 -1.0000
vn 1.0000 0.0000 0.0000
vn 0.9984 0.0400 -0.0400
vn 0.9982 0.0541 -0.0259
vn 0.9982 0.0259 -0.0541
vn 0.9971 -0.0540 -0.0540
vn 0.9984 -0.0398 -0.0398
vn 0.9994 -0.0252 -0.0252
vn 0.9984 -0.0400 0.0400
vn 0.9982 -0.0541 0.0259
vn 0.9982 -0.0259 0.0541
vn 0.9971 0.0540 0.0540
vn 0.9984 0.0398 0.0398
vn 0.9994 0.0252 0.0252
vn -0.9984 0.0400 0.0400
vn -0.9982 0.0541 0.0259
vn -0.9982 0.0259 0.0541
vn -0.9971 -0.0540 0.0540
vn -0.9984 -0.0398 0.0398
vn -0.9994 -0.0252 0.0252
vn -0.9984 -0.0400 -0.0400
vn -0.9982 -0.0541 -0.0259
vn -0.9982 -0.0259 -0.0541
vn -0.9971 0.0540 -0.0540
vn -0.9984 0.0398 -0.0398
vn -0.9994 0.0252 -0.0252
vn 0.0400 -0.9984 -0.0400
vn 0.0541 -0.9982 -0.0259
vn 0.0259 -0.9982 -0.0541
vn -0.0540 -0.9971 -0.0540
vn -0.0398 -0.9984 -0.0398
vn -0.0252 -0.9994 -0.0252
vn -0.0400 -0.9984 0.0400
vn -0.0541 -0.9982 0.0259
vn -0.0259 -0.9982 0.0541
vn 0.0540 -0.9971 0.0540
vn 0.0398 -0.9984 0.0398
vn 0.0252 -0.9994 0.0252
vn -0.0400 0.9984 -0.0400
vn -0.0541 0.9982 -0.0259
vn -0.0259 0.9982 -0.0541
vn 0.0540 0.9971 -0.0540
vn 0.0398 0.9984 -0.0398
vn 0.0252 0.9994 -0.0252
vn 0.0400 0.9984 0.0400
vn 0.0541 0.9982 0.0259
vn 0.0259 0.9982 0.0541
vn -0.0540 0.9971 0.0540
vn -0.0398 0.9984 0.0398
vn -0.0252 0.9994 0.0252
vn -0.0400 0.0400 0.9984
vn -0.0541 0.0259 0.9982
vn -0.0259 0.0541 0.9982
vn 0.0540 0.0540 0.9971
vn 0.0398 0.0398 0.9984
vn 0.0252 0.0252 0.9994
vn 0.0400 -0.0400 0.9984
vn 0.0541 -0.0259 0.9982
vn 0.0259 -0.0541 0.9982
vn -0.0540 -0.0540 0.9971
vn -0.0398 -0.0398 0.9984
vn -0.0252 -0.0252 0.9994
vn 0.0400 0.0400 -0.9984
vn 0.0541 0.0259 -0.9982
vn 0.0259 0.0541 -0.9982
vn -0.0540 0.0540 -0.9971
vn -0.0398 0.0398 -0.9984
vn -0.0252 0.0252 -0.9994
vn -0.0400 -0.0400 -0.9984
vn -0.0541 -0.0259 -0.9982
vn -0.0259 -0.0541 -0.9982
vn 0.0540 -0.0540 -0.9971
vn 0.0398 -0.0398 -0.9984
vn 0.0252 -0.0252 -0.9994
usemtl _cukedefault
s off
f 41/1/1 51/2/1 91/3/1
f 91/3/1 5/4/1 41/1/1
f 41/1/1 14/5/1 52/6/1
f 52/6/1 51/2/1 41/1/1
f 34/7/2 49/8/2 52/9/2
f 52/9/2 14/10/2 34/7/2
f 34/7/2 18/11/2 101/12/2
f 101/12/2 49/8/2 34/7/2
f 29/13/3 92/14/3 101/15/3
f 101/15/3 18/16/3 29/13/3
f 29/13/3 5/17/3 91/18/3
f 91/18/3 92/14/3 29/13/3
f 44/19/1 54/20/1 53/21/1
f 53/21/1 13/22/1 44/19/1
f 44/19/1 2/23/1 82/24/1
f 82/24/1 54/20/1 44/19/1
f 26/25/3 81/26/3 82/27/3
f 82/27/3 2/28/3 26/25/3
f 26/25/3 19/29/3 104/30/3
f 104/30/3 81/26/3 26/25/3
f 33/31/4 56/32/4 104/33/4
f 104/33/4 19/34/4 33/31/4
f 33/31/4 13/35/4 53/36/4
f 53/36/4 56/32/4 33/31/4
f 43/37/5 59/38/5 87/39/5
f 87/39/5 3/40/5 43/37/5
f 43/37/5 16/41/5 60/42/5
f 60/42/5 59/38/5 43/37/5
f 36/43/4 57/44/4 60/45/4
f 60/45/4 16/46/4 36/43/4
f 36/43/4 12/47/4 99/48/4
f 99/48/4 57/44/4 36/43/4
f 27/49/3 88/50/3 99/51/3
f 99/51/3 12/52/3 27/49/3
f 27/49/3 3/53/3 87/54/3
f 87/54/3 88/50/3 27/49/3
f 42/55/5 62/56/5 61/57/5
f 61/57/5 15/58/5 42/55/5
f 42/55/5 8/59/5 94/60/5
f 94/60/5 62/56/5 42/55/5
f 32/61/3 93/62/3 94/63/3
f 94/63/3 8/64/3 32/61/3
f 32/61/3 9/65/3 98/66/3
f 98/66/3 93/62/3 32/61/3
f 35/67/2 64/68/2 98/69/2
f 98/69/2 9/70/2 35/67/2
f 35/67/2 15/71/2 61/72/2
f 61/72/2 64/68/2 35/67/2
f 45/73/5 67/74/5 95/75/5
f 95/75/5 7/76/5 45/73/5
f 45/73/5 22/77/5 68/78/5
f 68/78/5 67/74/5 45/73/5
f 38/79/2 65/80/2 68/81/2
f 68/81/2 22/82/2 38/79/2
f 38/79/2 10/83/2 97/84/2
f 97/84/2 65/80/2 38/79/2
f 31/85/6 96/86/6 97/87/6
f 97/87/6 10/88/6 31/85/6
f 31/85/6 7/89/6 95/90/6
f 95/90/6 96/86/6 31/85/6
f 48/91/5 70/92/5 69/93/5
f 69/93/5 21/94/5 48/91/5
f 48/91/5 4/95/5 86/96/5
f 86/96/5 70/92/5 48/91/5
f 28/97/6 85/98/6 86/99/6
f 86/99/6 4/100/6 28/97/6
f 28/97/6 11/101/6 100/102/6
f 100/102/6 85/98/6 28/97/6
f 37/103/4 72/104/4 100/105/4
f 100/105/4 11/106/4 37/103/4
f 37/103/4 21/107/4 69/108/4
f 69/108/4 72/104/4 37/103/4
f 47/109/1 75/110/1 83/111/1
f 83/111/1 1/112/1 47/109/1
f 47/109/1 24/113/1 76/114/1
f 76/114/1 75/110/1 47/109/1
f 40/115/4 73/116/4 76/117/4
f 76/117/4 24/118/4 40/115/4
f 40/115/4 20/119/4 103/120/4
f 103/120/4 73/116/4 40/115/4
f 25/121/6 84/122/6 103/123/6
f 103/123/6 20/124/6 25/121/6
f 25/121/6 1/125/6 83/126/6
f 83/126/6 84/122/6 25/121/6
f 46/127/1 78/128/1 77/129/1
f 77/129/1 23/130/1 46/127/1
f 46/127/1 6/131/1 90/132/1
f 90/132/1 78/128/1 46/127/1
f 30/133/6 89/134/6 90/135/6
f 90/135/6 6/136/6 30/133/6
f 30/133/6 17/137/6 102/138/6
f 102/138/6 89/134/6 30/133/6
f 39/139/2 80/140/2 102/141/2
f 102/141/2 17/142/2 39/139/2
f 39/139/2 23/143/2 77/144/2
f 77/144/2 80/140/2 39/139/2
s 1
f 2/145/2 3/146/2 4/147/2
f 4/147/2 1/148/2 2/145/2
f 6/149/4 7/150/4 8/151/4
f 8/151/4 5/152/4 6/149/4
f 10/153/1 11/154/1 12/155/1
f 12/155/1 9/156/1 10/153/1
f 14/157/6 15/158/6 16/159/6
f 16/159/6 13/160/6 14/157/6
f 18/161/5 19/162/5 20/163/5
f 20/163/5 17/164/5 18/161/5
f 22/165/3 23/166/3 24/167/3
f 24/167/3 21/168/3 22/165/3
f 26/169/2 2/145/2 1/148/2
f 1/148/2 25/170/2 26/169/2
f 28/171/2 4/147/2 3/146/2
f 3/146/2 27/172/2 28/171/2
f 30/173/4 6/149/4 5/152/4
f 5/152/4 29/174/4 30/173/4
f 32/175/4 8/151/4 7/150/4
f 7/150/4 31/176/4 32/175/4
f 34/177/6 14/157/6 13/160/6
f 13/160/6 33/178/6 34/177/6
f 36/179/6 16/159/6 15/158/6
f 15/158/6 35/180/6 36/179/6
f 38/181/3 22/165/3 21/168/3
f 21/168/3 37/182/3 38/181/3
f 40/183/3 24/167/3 23/166/3
f 23/166/3 39/184/3 40/183/3
f 31/185/1 10/153/1 9/156/1
f 9/156/1 32/186/1 31/185/1
f 27/187/1 12/155/1 11/154/1
f 11/154/1 28/188/1 27/187/1
f 41/189/6 42/190/6 15/158/6
f 15/158/6 14/157/6 41/189/6
f 43/191/6 44/192/6 13/160/6
f 13/160/6 16/159/6 43/191/6
f 29/193/5 18/161/5 17/164/5
f 17/164/5 30/194/5 29/193/5
f 25/195/5 20/163/5 19/162/5
f 19/162/5 26/196/5 25/195/5
f 45/197/3 46/198/3 23/166/3
f 23/166/3 22/165/3 45/197/3
f 47/199/3 48/200/3 21/168/3
f 21/168/3 24/167/3 47/199/3
f 50/201/7 51/202/8 52/203/7
f 52/203/7 49/204/9 50/201/7
f 53/205/10 54/206/11 55/207/12
f 55/207/12 56/208/11 53/205/10
f 58/209/13 59/210/14 60/211/13
f 60/211/13 57/212/15 58/209/13
f 61/213/16 62/214/17 63/215/18
f 63/215/18 64/216/17 61/213/16
f 66/217/19 67/218/20 68/219/19
f 68/219/19 65/220/21 66/217/19
f 69/221/22 70/222/23 71/223/24
f 71/223/24 72/224/23 69/221/22
f 74/225/25 75/226/26 76/227/25
f 76/227/25 73/228/27 74/225/25
f 77/229/28 78/230/29 79/231/30
f 79/231/30 80/232/29 77/229/28
f 44/233/2 43/234/2 3/146/2
f 3/146/2 2/145/2 44/233/2
f 48/235/2 47/236/2 1/148/2
f 1/148/2 4/147/2 48/235/2
f 46/237/4 45/238/4 7/150/4
f 7/150/4 6/149/4 46/237/4
f 42/239/4 41/240/4 5/152/4
f 5/152/4 8/151/4 42/239/4
f 38/241/1 37/242/1 11/154/1
f 11/154/1 10/153/1 38/241/1
f 36/243/1 35/244/1 9/156/1
f 9/156/1 12/155/1 36/243/1
f 34/245/5 33/246/5 19/162/5
f 19/162/5 18/161/5 34/245/5
f 40/247/5 39/248/5 17/164/5
f 17/164/5 20/163/5 40/247/5
f 55/249/31 54/250/32 82/251/31
f 82/251/31 81/252/33 55/249/31
f 83/253/34 75/254/35 74/255/36
f 74/255/36 84/256/35 83/253/34
f 71/257/37 70/258/38 86/259/37
f 86/259/37 85/260/39 71/257/37
f 87/261/40 59/262/41 58/263/42
f 58/263/42 88/264/41 87/261/40
f 79/265/43 78/266/44 90/267/43
f 90/267/43 89/268/45 79/265/43
f 91/269/46 51/270/47 50/271/48
f 50/271/48 92/272/47 91/269/46
f 63/273/49 62/274/50 94/275/49
f 94/275/49 93/276/51 63/273/49
f 95/277/52 67/278/53 66/279/54
f 66/279/54 96/280/53 95/277/52
f 66/281/55 65/282/56 97/283/55
f 97/283/55 96/284/57 66/281/55
f 98/285/58 64/286/59 63/287/60
f 63/287/60 93/288/59 98/285/58
f 58/289/61 57/290/62 99/291/61
f 99/291/61 88/292/63 58/289/61
f 100/293/64 72/294/65 71/295/66
f 71/295/66 85/296/65 100/293/64
f 50/297/67 49/298/68 101/299/67
f 101/299/67 92/300/69 50/297/67
f 102/301/70 80/302/71 79/303/72
f 79/303/72 89/304/71 102/301/70
f 74/305/73 73/306/74 103/307/73
f 103/307/73 84/308/75 74/305/73
f 104/309/76 56/310/77 55/311/78
f 55/311/78 81/312/77 104/309/76
