# Apple ModelIO OBJ File: cube
mtllib cube.mtl
g 
v -1 -1 1
v -1 1 1
v -1 1 -1
v -1 -1 -1
v 1 1 -1
v 1 -1 -1
v 1 1 1
v 1 -1 1
vn -1 0 0
vn 0 0 -1
vn 1 0 0
vn 0 0 1
vn 0 -1 0
vn 0 1 0
vt 0.666667 0.333333
vt 0.333333 0.333333
vt 0.333333 0
vt 0.666667 0
vt 0.333333 0.666667
vt 0 0.666667
vt 0 0.333333
vt 0 0
vt 0.666667 0.666667
vt 1 0.333333
vt 1 0
vt 0.333333 1
vt 0 1
usemtl material_1
f 1/1/1 2/2/1 3/3/1 4/4/1 
f 4/5/2 3/6/2 5/7/2 6/2/2 
f 6/2/3 5/7/3 7/8/3 8/3/3 
f 8/5/4 7/2/4 2/1/4 1/9/4 
f 4/10/5 6/1/5 8/4/5 1/11/5 
f 5/5/6 3/12/6 2/13/6 7/6/6 
s off
